<?xml version="1.0" encoding="UTF-8" standalone="no"?>
<!-- Created with Inkscape (http://www.inkscape.org/) -->

<svg
   xmlns:dc="http://purl.org/dc/elements/1.1/"
   xmlns:cc="http://creativecommons.org/ns#"
   xmlns:rdf="http://www.w3.org/1999/02/22-rdf-syntax-ns#"
   xmlns:svg="http://www.w3.org/2000/svg"
   xmlns="http://www.w3.org/2000/svg"
   xmlns:sodipodi="http://sodipodi.sourceforge.net/DTD/sodipodi-0.dtd"
   xmlns:inkscape="http://www.inkscape.org/namespaces/inkscape"
   width="475.52692"
   height="785.03467"
   id="svg6960"
   version="1.1"
   inkscape:version="0.47 r22583"
   sodipodi:docname="Information road sign alternative route high vehicles.svg">
  <defs
     id="defs6962"><inkscape:perspective
   sodipodi:type="inkscape:persp3d"
   inkscape:vp_x="0 : 526.18109 : 1"
   inkscape:vp_y="0 : 1000 : 0"
   inkscape:vp_z="744.09448 : 526.18109 : 1"
   inkscape:persp3d-origin="372.04724 : 350.78739 : 1"
   id="perspective6968" />
<inkscape:perspective
   sodipodi:type="inkscape:persp3d"
   inkscape:vp_x="0 : 288 : 1"
   inkscape:vp_y="0 : 1000 : 0"
   inkscape:vp_z="576 : 288 : 1"
   inkscape:persp3d-origin="288 : 192 : 1"
   id="perspective20" />

<inkscape:perspective
   sodipodi:type="inkscape:persp3d"
   inkscape:vp_x="0 : 0.5 : 1"
   inkscape:vp_y="0 : 1000 : 0"
   inkscape:vp_z="1 : 0.5 : 1"
   inkscape:persp3d-origin="0.5 : 0.33333333 : 1"
   id="perspective2928" />
<inkscape:perspective
   sodipodi:type="inkscape:persp3d"
   inkscape:vp_x="0 : 0.5 : 1"
   inkscape:vp_y="0 : 1000 : 0"
   inkscape:vp_z="1 : 0.5 : 1"
   inkscape:persp3d-origin="0.5 : 0.33333333 : 1"
   id="perspective3651" />
<inkscape:perspective
   id="perspective6996"
   inkscape:persp3d-origin="0.5 : 0.33333333 : 1"
   inkscape:vp_z="1 : 0.5 : 1"
   inkscape:vp_y="0 : 1000 : 0"
   inkscape:vp_x="0 : 0.5 : 1"
   sodipodi:type="inkscape:persp3d" />
<inkscape:perspective
   id="perspective7933"
   inkscape:persp3d-origin="0.5 : 0.33333333 : 1"
   inkscape:vp_z="1 : 0.5 : 1"
   inkscape:vp_y="0 : 1000 : 0"
   inkscape:vp_x="0 : 0.5 : 1"
   sodipodi:type="inkscape:persp3d" />
<inkscape:perspective
   id="perspective7985"
   inkscape:persp3d-origin="0.5 : 0.33333333 : 1"
   inkscape:vp_z="1 : 0.5 : 1"
   inkscape:vp_y="0 : 1000 : 0"
   inkscape:vp_x="0 : 0.5 : 1"
   sodipodi:type="inkscape:persp3d" />
<inkscape:perspective
   id="perspective8076"
   inkscape:persp3d-origin="0.5 : 0.33333333 : 1"
   inkscape:vp_z="1 : 0.5 : 1"
   inkscape:vp_y="0 : 1000 : 0"
   inkscape:vp_x="0 : 0.5 : 1"
   sodipodi:type="inkscape:persp3d" />
</defs>
  <sodipodi:namedview
     id="base"
     pagecolor="#ffffff"
     bordercolor="#666666"
     borderopacity="1.0"
     inkscape:pageopacity="0.0"
     inkscape:pageshadow="2"
     inkscape:zoom="0.20883789"
     inkscape:cx="1236.591"
     inkscape:cy="186.24452"
     inkscape:document-units="px"
     inkscape:current-layer="layer1"
     showgrid="false"
     inkscape:window-width="1600"
     inkscape:window-height="838"
     inkscape:window-x="-8"
     inkscape:window-y="-8"
     inkscape:window-maximized="1" />
  <metadata
     id="metadata6965">
    <rdf:RDF>
      <cc:Work
         rdf:about="">
        <dc:format>image/svg+xml</dc:format>
        <dc:type
           rdf:resource="http://purl.org/dc/dcmitype/StillImage" />
        <dc:title></dc:title>
      </cc:Work>
    </rdf:RDF>
  </metadata>
  <g
     inkscape:label="Livello 1"
     inkscape:groupmode="layer"
     id="layer1"
     transform="translate(1685.1963,66.427922)">






<g
   id="g6414"
   transform="matrix(14.435342,0,0,-14.435342,-1685.1338,-40.583901)">
  <path
     d="m 0,0 0,-50.803 0.029,-0.302 0.086,-0.302 c 0.132,-0.539 0.816,-1.11 1.368,-1.152 l 0.317,-0.029 29.333,0 c 0.625,-0.009 1.244,0.354 1.555,0.893 l 0.129,0.288 0.087,0.302 0.029,0.302 0,50.803 c 0.01,0.562 -0.368,1.314 -0.907,1.541 L 31.737,1.685 31.449,1.757 31.133,1.786 1.8,1.786 1.483,1.757 1.166,1.685 0.892,1.541 0.634,1.382 0.418,1.152 0.23,0.893 0.115,0.605 0.029,0.317"
     style="fill:#231f20;fill-opacity:1;fill-rule:nonzero;stroke:none"
     id="path6416" />
</g>
<g
   id="g6418"
   transform="matrix(14.435342,0,0,-14.435342,-1685.1338,-40.583901)">
  <path
     d="m 0,0 0,-50.803 0.029,-0.302 0.086,-0.302 c 0.132,-0.539 0.816,-1.11 1.368,-1.152 l 0.317,-0.029 29.333,0 c 0.625,-0.009 1.244,0.354 1.555,0.893 l 0.129,0.288 0.087,0.302 0.029,0.302 0,50.803 c 0.01,0.562 -0.368,1.314 -0.907,1.541 L 31.737,1.685 31.449,1.757 31.133,1.786 1.8,1.786 1.483,1.757 1.166,1.685 0.892,1.541 0.634,1.382 0.418,1.152 0.23,0.893 0.115,0.605 0.029,0.317 0,0 z"
     style="fill:none;stroke:#231f20;stroke-width:0.0037235;stroke-linecap:butt;stroke-linejoin:miter;stroke-miterlimit:4;stroke-opacity:1;stroke-dasharray:none"
     id="path6420" />
</g>
<g
   id="g6422"
   transform="matrix(14.435342,0,0,-14.435342,-1667.8835,-32.067051)">
  <path
     d="m 0,0 0,-49.608 0.029,-0.273 0.101,-0.26 0.144,-0.216 0.187,-0.187 0.23,-0.144 0.245,-0.101 0.274,-0.028 28.123,0 0.259,0.028 0.259,0.101 0.231,0.144 0.187,0.187 0.144,0.216 0.072,0.26 0.043,0.273 0,49.608 -0.043,0.259 -0.072,0.259 -0.144,0.231 -0.187,0.187 -0.231,0.13 -0.259,0.1 -0.259,0.029 -28.123,0 L 0.936,1.166 0.691,1.066 0.461,0.936 0.274,0.749 0.13,0.518 0.029,0.259"
     style="fill:#ffffff;fill-opacity:1;fill-rule:nonzero;stroke:none"
     id="path6424" />
</g>
<g
   id="g6426"
   transform="matrix(14.435342,0,0,-14.435342,-1667.8835,-32.067051)">
  <path
     d="m 0,0 0,-49.608 0.029,-0.273 0.101,-0.26 0.144,-0.216 0.187,-0.187 0.23,-0.144 0.245,-0.101 0.274,-0.028 28.123,0 0.259,0.028 0.259,0.101 0.231,0.144 0.187,0.187 0.144,0.216 0.072,0.26 0.043,0.273 0,49.608 -0.043,0.259 -0.072,0.259 -0.144,0.231 -0.187,0.187 -0.231,0.13 -0.259,0.1 -0.259,0.029 -28.123,0 L 0.936,1.166 0.691,1.066 0.461,0.936 0.274,0.749 0.13,0.518 0.029,0.259 0,0 z"
     style="fill:none;stroke:#231f20;stroke-width:0.0037235;stroke-linecap:butt;stroke-linejoin:miter;stroke-miterlimit:4;stroke-opacity:1;stroke-dasharray:none"
     id="path6428" />
</g>
<g
   id="g6430"
   transform="matrix(14.435342,0,0,-14.435342,-1510.3218,246.47734)">
  <path
     d="m 0,0 0,15.351 8.223,0 c 1.338,-0.113 2.332,-0.821 2.908,-2.031 l 0.159,-0.461 0.115,-0.446 0,-3.024 L 11.203,8.87 10.959,8.381 10.671,7.92 10.296,7.474 9.864,7.099 9.432,6.754 8.928,6.509 8.41,6.293 7.877,6.134 3.312,6.134 3.269,0"
     style="fill:#231f20;fill-opacity:1;fill-rule:nonzero;stroke:none"
     id="path6432" />
</g>
<g
   id="g6434"
   transform="matrix(14.435342,0,0,-14.435342,-1510.3218,246.47734)">
  <path
     d="m 0,0 0,15.351 8.223,0 c 1.338,-0.113 2.332,-0.821 2.908,-2.031 l 0.159,-0.461 0.115,-0.446 0,-3.024 L 11.203,8.87 10.959,8.381 10.671,7.92 10.296,7.474 9.864,7.099 9.432,6.754 8.928,6.509 8.41,6.293 7.877,6.134 3.312,6.134 3.269,0 0,0 z"
     style="fill:none;stroke:#231f20;stroke-width:0.0037235;stroke-linecap:butt;stroke-linejoin:miter;stroke-miterlimit:4;stroke-opacity:1;stroke-dasharray:none"
     id="path6436" />
</g>
<g
   id="g6438"
   transform="matrix(14.435342,0,0,-14.435342,-1398.2747,61.892589)">
  <path
     d="m 0,0 0.302,-0.173 0.231,-0.23 0.216,-0.288 0,-1.829 L 0.677,-2.88 0.518,-3.197 0.273,-3.485 -0.015,-3.701 -0.36,-3.83 l -0.346,-0.058 -3.787,0 0,4.09 3.845,0 0.331,-0.072"
     style="fill:#ffffff;fill-opacity:1;fill-rule:nonzero;stroke:none"
     id="path6440" />
</g>
<g
   id="g6442"
   transform="matrix(14.435342,0,0,-14.435342,-1398.2747,61.892589)">
  <path
     d="m 0,0 0.302,-0.173 0.231,-0.23 0.216,-0.288 0,-1.829 L 0.677,-2.88 0.518,-3.197 0.273,-3.485 -0.015,-3.701 -0.36,-3.83 l -0.346,-0.058 -3.787,0 0,4.09 3.845,0 L -0.317,0.13 0,0 z"
     style="fill:none;stroke:#231f20;stroke-width:0.0037235;stroke-linecap:butt;stroke-linejoin:miter;stroke-miterlimit:4;stroke-opacity:1;stroke-dasharray:none"
     id="path6444" />
  <g
     id="g6446"
     transform="translate(-4.493,-6.653)">
    <path
       d="M 0,0 4.608,0"
       style="fill:none;stroke:#231f20;stroke-width:0.0037235;stroke-linecap:butt;stroke-linejoin:miter;stroke-miterlimit:4;stroke-opacity:1;stroke-dasharray:none"
       id="path6448" />
  </g>
</g>
<g
   id="g6450"
   transform="matrix(14.435342,0,0,-14.435342,-1502.6278,372.23804)">
  <path
     d="M 0,0 0,0.475 C 0.179,1.928 1.784,2.804 3.082,2.103 L 3.398,1.915 3.686,1.67 C 4.772,0.446 4.212,-1.46 2.606,-1.857 l -0.374,-0.058 -0.374,0.029 0.345,-3.456 4.997,0 0,-1.8 -4.853,0 0.202,-1.08 6.494,0 2.794,-6.134 1.742,0.748 0.547,-1.195 -3.369,-1.454 -2.794,6.264 -6.926,0"
     style="fill:#231f20;fill-opacity:1;fill-rule:nonzero;stroke:none"
     id="path6452" />
</g>
<g
   id="g6454"
   transform="matrix(14.435342,0,0,-14.435342,-1502.6278,372.23804)">
  <path
     d="M 0,0 0,0.475 C 0.179,1.928 1.784,2.804 3.082,2.103 L 3.398,1.915 3.686,1.67 C 4.772,0.446 4.212,-1.46 2.606,-1.857 l -0.374,-0.058 -0.374,0.029 0.345,-3.456 4.997,0 0,-1.8 -4.853,0 0.202,-1.08 6.494,0 2.794,-6.134 1.742,0.748 0.547,-1.195 -3.369,-1.454 -2.794,6.264 -6.926,0 L 0,0 z"
     style="fill:none;stroke:#231f20;stroke-width:0.0037235;stroke-linecap:butt;stroke-linejoin:miter;stroke-miterlimit:4;stroke-opacity:1;stroke-dasharray:none"
     id="path6456" />
</g>
<g
   id="g6458"
   transform="matrix(14.435342,0,0,-14.435342,-1502.2091,459.54294)">
  <path
     d="M 0,0 0.201,-1.814 -0.274,-2.16 c -6.092,-6.066 4.548,-13.206 7.877,-5.285 l 0.389,1.959 1.166,-2.65 -0.273,-0.619 c -5.395,-9.67 -18.277,0.629 -10.052,8.05 l 0.562,0.388"
     style="fill:#231f20;fill-opacity:1;fill-rule:nonzero;stroke:none"
     id="path6460" />
</g>
<g
   id="g6462"
   transform="matrix(14.435342,0,0,-14.435342,-1502.2091,459.54294)">
  <path
     d="M 0,0 0.201,-1.814 -0.274,-2.16 c -6.092,-6.066 4.548,-13.206 7.877,-5.285 l 0.389,1.959 1.166,-2.65 -0.273,-0.619 c -5.395,-9.67 -18.277,0.629 -10.052,8.05 L -0.605,-0.317 0,0 z"
     style="fill:none;stroke:#231f20;stroke-width:0.0037235;stroke-linecap:butt;stroke-linejoin:miter;stroke-miterlimit:4;stroke-opacity:1;stroke-dasharray:none"
     id="path6464" />
</g>
</g>
</svg>
