<?xml version="1.0" standalone="no"?>
<!DOCTYPE svg PUBLIC "-//W3C//DTD SVG 20010904//EN"
 "http://www.w3.org/TR/2001/REC-SVG-20010904/DTD/svg10.dtd">
<svg version="1.0" xmlns="http://www.w3.org/2000/svg"
 width="900.000000pt" height="900.000000pt" viewBox="0 0 900.000000 900.000000"
 preserveAspectRatio="xMidYMid meet">
<metadata>
Created by potrace 1.16, written by Peter Selinger 2001-2019
</metadata>
<g transform="translate(0.000000,900.000000) scale(0.100000,-0.100000)"
fill="#000000" stroke="none">
<path d="M619 8975 c-145 -29 -267 -95 -379 -205 -120 -118 -195 -260 -219
-420 -9 -56 -11 -1030 -9 -3895 l3 -3820 23 -75 c49 -159 146 -298 275 -394
90 -67 154 -99 254 -128 l78 -23 3860 0 3860 0 81 26 c243 76 437 270 513 513
l26 81 0 3860 0 3860 -23 80 c-73 253 -266 447 -522 527 l-75 23 -3840 2
c-3156 1 -3852 -1 -3906 -12z m7764 -71 c40 -9 110 -34 157 -57 69 -33 102
-58 175 -132 74 -73 99 -106 132 -175 80 -165 73 220 73 -4040 0 -4262 7
-3876 -73 -4040 -34 -69 -59 -102 -132 -175 -74 -75 -105 -98 -175 -132 -165
-80 220 -73 -4040 -73 -4260 0 -3875 -7 -4040 73 -69 33 -102 58 -175 132 -74
73 -99 106 -132 175 -80 165 -73 -220 -73 4039 0 4252 -7 3880 72 4041 34 69
59 102 133 175 102 102 192 155 317 186 70 17 248 18 3891 18 3447 1 3825 -1
3890 -15z"/>
<path d="M635 8765 c-179 -49 -320 -176 -382 -345 l-28 -75 0 -3845 0 -3845
28 -75 c62 -170 207 -300 385 -345 51 -13 515 -15 3887 -13 l3830 3 68 27
c152 61 264 173 325 325 l27 68 0 3850 0 3850 -28 75 c-53 144 -176 270 -322
327 l-70 28 -3835 2 c-3205 1 -3843 0 -3885 -12z m3964 -434 c152 -40 276
-115 392 -239 88 -94 131 -163 175 -280 57 -152 67 -324 28 -492 -20 -87 -90
-230 -155 -313 -61 -80 -187 -184 -270 -224 l-59 -28 0 -452 0 -453 660 0 660
0 0 -350 0 -350 -660 0 -660 0 0 -22 c0 -13 9 -176 20 -363 10 -187 22 -410
26 -495 4 -85 8 -162 10 -170 1 -8 3 -34 3 -57 l1 -43 775 0 774 0 22 -72 c12
-40 151 -507 310 -1037 160 -531 295 -984 301 -1008 6 -24 13 -45 17 -47 4 -3
58 11 121 30 63 19 151 45 195 58 44 13 140 43 214 65 74 22 136 40 137 38 8
-10 104 -353 101 -362 -3 -6 -22 -16 -43 -22 -67 -19 -576 -171 -856 -254
-147 -44 -280 -81 -295 -82 -26 -2 -28 1 -54 93 -15 52 -50 174 -79 270 -29
96 -62 211 -75 255 -12 44 -62 213 -110 375 -48 162 -97 331 -110 376 -13 44
-47 159 -75 255 -84 283 -120 408 -120 414 0 3 -405 5 -899 5 l-900 0 -5 43
c-3 23 -15 215 -26 427 -12 212 -33 563 -47 780 -24 366 -27 461 -31 1285 l-4
890 -85 55 c-186 120 -314 309 -358 529 -21 102 -16 292 10 386 41 152 150
319 274 421 90 75 243 150 356 174 116 26 274 22 394 -9z m-791 -2403 l-3
-242 -40 -3 c-219 -19 -523 -111 -760 -231 -450 -228 -796 -579 -1021 -1037
-167 -340 -244 -696 -231 -1070 16 -450 136 -830 377 -1193 355 -534 897 -885
1545 -999 142 -25 576 -25 720 0 660 116 1221 486 1571 1037 31 50 58 89 60
88 2 -3 62 -204 140 -472 19 -65 34 -122 32 -126 -10 -26 -190 -218 -287 -307
-214 -194 -407 -326 -656 -448 -678 -332 -1457 -375 -2163 -119 -750 272
-1345 853 -1640 1599 -77 195 -132 412 -168 660 -21 145 -24 533 -5 665 51
355 136 640 272 913 362 724 1015 1253 1793 1454 146 37 338 70 419 72 l47 1
-2 -242z"/>
</g>
</svg>
