<?xml version="1.0" standalone="yes"?>
<svg xmlns="http://www.w3.org/2000/svg" width="75" height="74">
<path style="fill:#236799; stroke:none;" d="M0 0L0 53L1.02778 72.3966L20 74L75 74L75 0L0 0z"/>
<path style="fill:#4c83ac; stroke:none;" d="M54 5L55 6L54 5z"/>
<path style="fill:#adc6d9; stroke:none;" d="M55 5L56 6L55 5z"/>
<path style="fill:#fcfdfd; stroke:none;" d="M56.0586 5.78626C48.9759 8.27019 52.6841 19.7917 59.9414 17.3526C67.0243 14.9722 63.4233 3.20348 56.0586 5.78626z"/>
<path style="fill:#adc6d9; stroke:none;" d="M60 5L61 6L60 5z"/>
<path style="fill:#4c83ac; stroke:none;" d="M61 5L62 6L61 5z"/>
<path style="fill:#759fbf; stroke:none;" d="M53 6L54 7L53 6M62 6L63 7L62 6M52 7L53 8L52 7z"/>
<path style="fill:#4c83ac; stroke:none;" d="M63 7L64 8L63 7M51 9L52 10L51 9z"/>
<path style="fill:#759fbf; stroke:none;" d="M64 9L65 10L64 9z"/>
<path style="fill:#adc6d9; stroke:none;" d="M51 10L51 13L52 13L51 10M64 10L64 13L65 13L64 10z"/>
<path style="fill:#4c83ac; stroke:none;" d="M30 12L30 13L33 13L30 12z"/>
<path style="fill:#adc6d9; stroke:none;" d="M29 13L22 21L29 13z"/>
<path style="fill:#fcfdfd; stroke:none;" d="M41 22L36 29C38.6362 30.7909 42.5399 34.6225 46 33.669C49.6129 32.6733 59.107 23.9274 54.5224 20.1389C50.758 17.0283 35.7153 12.3369 31 13.6968C28.713 14.3563 19.0806 22.1346 23.6227 24.5926C26.3581 26.0729 29.696 21.9969 32 21.1057C34.9221 19.9754 38.1106 21.3418 41 22z"/>
<path style="fill:#adc6d9; stroke:none;" d="M34 13L35 14L34 13z"/>
<path style="fill:#4c83ac; stroke:none;" d="M35 13L36 14L35 13M51 13L52 14L51 13z"/>
<path style="fill:#759fbf; stroke:none;" d="M64 13L65 14L64 13z"/>
<path style="fill:#4c83ac; stroke:none;" d="M27 14L28 15L27 14z"/>
<path style="fill:#adc6d9; stroke:none;" d="M37 14L38 15L37 14z"/>
<path style="fill:#759fbf; stroke:none;" d="M38 14L39 15L38 14z"/>
<path style="fill:#4c83ac; stroke:none;" d="M39 14L40 15L39 14z"/>
<path style="fill:#759fbf; stroke:none;" d="M41 15L42 16L41 15M52 15L53 16L52 15M63 15L64 16L63 15z"/>
<path style="fill:#4c83ac; stroke:none;" d="M25 16L26 17L25 16z"/>
<path style="fill:#adc6d9; stroke:none;" d="M43.6667 16.3333L44.3333 16.6667L43.6667 16.3333z"/>
<path style="fill:#759fbf; stroke:none;" d="M45 16L46 17L45 16M53 16L54 17L53 16M62 16L63 17L62 16z"/>
<path style="fill:#adc6d9; stroke:none;" d="M47 17L48 18L47 17z"/>
<path style="fill:#4c83ac; stroke:none;" d="M48 17L49 18L48 17M54 17L55 18L54 17z"/>
<path style="fill:#adc6d9; stroke:none;" d="M55 17L56 18L55 17z"/>
<path style="fill:#4c83ac; stroke:none;" d="M61 17L62 18L61 17M23 18L24 19L23 18z"/>
<path style="fill:#adc6d9; stroke:none;" d="M50 18L51 19L50 18z"/>
<path style="fill:#759fbf; stroke:none;" d="M51 18L52 19L51 18z"/>
<path style="fill:#4c83ac; stroke:none;" d="M52 18L53 19L52 18M56 18L56 19L60 19L56 18z"/>
<path style="fill:#759fbf; stroke:none;" d="M54 19L55 20L54 19z"/>
<path style="fill:#4c83ac; stroke:none;" d="M55 19L56 20L55 19z"/>
<path style="fill:#759fbf; stroke:none;" d="M31 20L32 21L31 20z"/>
<path style="fill:#4c83ac; stroke:none;" d="M33 20L34 21L33 20z"/>
<path style="fill:#759fbf; stroke:none;" d="M34 20L35 21L34 20z"/>
<path style="fill:#adc6d9; stroke:none;" d="M35 20L36 21L35 20z"/>
<path style="fill:#759fbf; stroke:none;" d="M21 21L22 22L21 21z"/>
<path style="fill:#adc6d9; stroke:none;" d="M30 21L31 22L30 21z"/>
<path style="fill:#759fbf; stroke:none;" d="M37 21L38 22L37 21z"/>
<path style="fill:#adc6d9; stroke:none;" d="M38 21L39 22L38 21M56 21L57 22L56 21M21 22L22 23L21 22M29 22L30 23L29 22z"/>
<path style="fill:#759fbf; stroke:none;" d="M40 22L41 23L40 22M21 23L22 24L21 23z"/>
<path style="fill:#adc6d9; stroke:none;" d="M28 23L29 24L28 23z"/>
<path style="fill:#759fbf; stroke:none;" d="M39 23L40 24L39 23z"/>
<path style="fill:#adc6d9; stroke:none;" d="M56 23L57 24L56 23z"/>
<path style="fill:#4c83ac; stroke:none;" d="M21 24L22 25L21 24z"/>
<path style="fill:#adc6d9; stroke:none;" d="M27 24L28 25L27 24z"/>
<path style="fill:#4c83ac; stroke:none;" d="M38 24L39 25L38 24M56 24L57 25L56 24M22 25L23 26L22 25z"/>
<path style="fill:#adc6d9; stroke:none;" d="M23 25L24 26L23 25M25 25L26 26L25 25z"/>
<path style="fill:#759fbf; stroke:none;" d="M26 25L27 26L26 25z"/>
<path style="fill:#4c83ac; stroke:none;" d="M37 25L38 26L37 25z"/>
<path style="fill:#759fbf; stroke:none;" d="M55 25L56 26L55 25z"/>
<path style="fill:#4c83ac; stroke:none;" d="M36 26L37 27L36 26z"/>
<path style="fill:#759fbf; stroke:none;" d="M54 26L55 27L54 26z"/>
<path style="fill:#adc6d9; stroke:none;" d="M36 27L37 28L36 27z"/>
<path style="fill:#759fbf; stroke:none;" d="M53 27L54 28L53 27z"/>
<path style="fill:#adc6d9; stroke:none;" d="M35 28L36 29L35 28z"/>
<path style="fill:#759fbf; stroke:none;" d="M52 28L53 29L52 28z"/>
<path style="fill:#4c83ac; stroke:none;" d="M36 29L37 30L36 29z"/>
<path style="fill:#759fbf; stroke:none;" d="M51 29L52 30L51 29M38 30L39 31L38 30M50 30L51 31L50 30z"/>
<path style="fill:#4c83ac; stroke:none;" d="M24 31L25 32L24 31z"/>
<path style="fill:#759fbf; stroke:none;" d="M25 31L25 32L29 32L25 31z"/>
<path style="fill:#4c83ac; stroke:none;" d="M29 31L30 32L29 31M39 31L40 32L39 31z"/>
<path style="fill:#759fbf; stroke:none;" d="M49 31L50 32L49 31M20 32L21 33L20 32z"/>
<path style="fill:#adc6d9; stroke:none;" d="M21.6667 32.3333L22.3333 32.6667L21.6667 32.3333z"/>
<path style="fill:#fcfdfd; stroke:none;" d="M23 32.4792C1.68136 36.8465 8.50529 70.6979 30 66.517C52.401 62.1598 45.6091 27.8474 23 32.4792z"/>
<path style="fill:#adc6d9; stroke:none;" d="M31.6667 32.3333L32.3333 32.6667L31.6667 32.3333z"/>
<path style="fill:#4c83ac; stroke:none;" d="M33 32L34 33L33 32z"/>
<path style="fill:#adc6d9; stroke:none;" d="M41 32L42 33L41 32z"/>
<path style="fill:#759fbf; stroke:none;" d="M48 32L49 33L48 32z"/>
<path style="fill:#4c83ac; stroke:none;" d="M18 33L19 34L18 33z"/>
<path style="fill:#adc6d9; stroke:none;" d="M34 33L35 34L34 33z"/>
<path style="fill:#4c83ac; stroke:none;" d="M35 33L36 34L35 33z"/>
<path style="fill:#adc6d9; stroke:none;" d="M42 33L43 34L42 33z"/>
<path style="fill:#759fbf; stroke:none;" d="M47 33L48 34L47 33z"/>
<path style="fill:#4c83ac; stroke:none;" d="M16 34L17 35L16 34z"/>
<path style="fill:#adc6d9; stroke:none;" d="M17 34L18 35L17 34M36 34L37 35L36 34M43 34L44 35L43 34z"/>
<path style="fill:#759fbf; stroke:none;" d="M46 34L47 35L46 34z"/>
<path style="fill:#4c83ac; stroke:none;" d="M60 34L61 35L60 34z"/>
<path style="fill:#759fbf; stroke:none;" d="M15 35L16 36L15 35z"/>
<path style="fill:#4c83ac; stroke:none;" d="M38 35L39 36L38 35z"/>
<path style="fill:#adc6d9; stroke:none;" d="M44 35L46 37L44 35z"/>
<path style="fill:#759fbf; stroke:none;" d="M45 35L46 36L45 35z"/>
<path style="fill:#4c83ac; stroke:none;" d="M48 35L48 36L52 36L48 35z"/>
<path style="fill:#759fbf; stroke:none;" d="M52.6667 35.3333L53.3333 35.6667L52.6667 35.3333z"/>
<path style="fill:#adc6d9; stroke:none;" d="M54 35L54 36L57 36L54 35z"/>
<path style="fill:#fcfdfd; stroke:none;" d="M46 36C47.7119 41.5764 50.5561 41.9807 56 42C55.6335 44.7218 55.0258 47.331 54.3742 50C53.9331 51.807 51.8199 63.6936 57.4306 59.9136C60.6538 57.742 64.4536 39.8325 61.9684 36.7461C59.4872 33.6648 49.6857 35.9996 46 36z"/>
<path style="fill:#adc6d9; stroke:none;" d="M61 35L62 36L61 35z"/>
<path style="fill:#4c83ac; stroke:none;" d="M62 35L63 36L62 35z"/>
<path style="fill:#759fbf; stroke:none;" d="M14 36L15 37L14 36z"/>
<path style="fill:#adc6d9; stroke:none;" d="M22 36L23 37L22 36z"/>
<path style="fill:#759fbf; stroke:none;" d="M23 36L24 37L23 36z"/>
<path style="fill:#4c83ac; stroke:none;" d="M24 36L24 37L30 37L24 36z"/>
<path style="fill:#759fbf; stroke:none;" d="M30 36L31 37L30 36z"/>
<path style="fill:#4c83ac; stroke:none;" d="M39 36L40 37L39 36z"/>
<path style="fill:#759fbf; stroke:none;" d="M13 37L14 38L13 37z"/>
<path style="fill:#adc6d9; stroke:none;" d="M20 37L21 38L20 37z"/>
<path style="fill:#4c83ac; stroke:none;" d="M21 37L22 38L21 37z"/>
<path style="fill:#236799; stroke:none;" d="M22.0147 37.7029C6.86556 42.9651 15.9034 66.0985 30.9992 61.3472C47.1379 56.2678 38.0179 32.1441 22.0147 37.7029z"/>
<path style="fill:#759fbf; stroke:none;" d="M32 37L33 38L32 37z"/>
<path style="fill:#adc6d9; stroke:none;" d="M33 37L34 38L33 37z"/>
<path style="fill:#4c83ac; stroke:none;" d="M40 37L41 38L40 37z"/>
<path style="fill:#759fbf; stroke:none;" d="M45 37L46 38L45 37M63.3333 37.6667L63.6667 38.3333L63.3333 37.6667z"/>
<path style="fill:#4c83ac; stroke:none;" d="M12 38L13 39L12 38M19 38L20 39L19 38z"/>
<path style="fill:#759fbf; stroke:none;" d="M34 38L35 39L34 38z"/>
<path style="fill:#adc6d9; stroke:none;" d="M46 38L47 39L46 38M17 39L18 40L17 39z"/>
<path style="fill:#4c83ac; stroke:none;" d="M18 39L19 40L18 39M35 39L36 40L35 39z"/>
<path style="fill:#adc6d9; stroke:none;" d="M41 39L42 40L41 39z"/>
<path style="fill:#4c83ac; stroke:none;" d="M46 39L47 40L46 39M63.3333 39.6667L63.6667 40.3333L63.3333 39.6667z"/>
<path style="fill:#adc6d9; stroke:none;" d="M11 40L12 41L11 40z"/>
<path style="fill:#4c83ac; stroke:none;" d="M36 40L37 41L36 40M42 40L43 41L42 40z"/>
<path style="fill:#adc6d9; stroke:none;" d="M47 40L48 41L47 40z"/>
<path style="fill:#4c83ac; stroke:none;" d="M16 41L17 42L16 41z"/>
<path style="fill:#759fbf; stroke:none;" d="M37 41L38 42L37 41M47 41L48 42L47 41z"/>
<path style="fill:#adc6d9; stroke:none;" d="M10 42L11 43L10 42z"/>
<path style="fill:#759fbf; stroke:none;" d="M15 42L16 43L15 42z"/>
<path style="fill:#adc6d9; stroke:none;" d="M38 42L39 43L38 42z"/>
<path style="fill:#759fbf; stroke:none;" d="M43 42L44 43L43 42z"/>
<path style="fill:#adc6d9; stroke:none;" d="M48.6667 42.3333L49.3333 42.6667L48.6667 42.3333z"/>
<path style="fill:#759fbf; stroke:none;" d="M50.6667 42.3333L51.3333 42.6667L50.6667 42.3333z"/>
<path style="fill:#4c83ac; stroke:none;" d="M52.6667 42.3333L53.3333 42.6667L52.6667 42.3333M55 42L56 43L55 42z"/>
<path style="fill:#adc6d9; stroke:none;" d="M62.3333 42.6667L62.6667 43.3333L62.3333 42.6667z"/>
<path style="fill:#4c83ac; stroke:none;" d="M38 43L39 44L38 43z"/>
<path style="fill:#adc6d9; stroke:none;" d="M43 43L44 44L43 43z"/>
<path style="fill:#759fbf; stroke:none;" d="M55 43L56 44L55 43z"/>
<path style="fill:#4c83ac; stroke:none;" d="M9 44L10 45L9 44z"/>
<path style="fill:#adc6d9; stroke:none;" d="M14 44L15 45L14 44M39 44L40 45L39 44M55.3333 44.6667L55.6667 45.3333L55.3333 44.6667z"/>
<path style="fill:#4c83ac; stroke:none;" d="M62 44L63 45L62 44z"/>
<path style="fill:#759fbf; stroke:none;" d="M9 45L10 46L9 45z"/>
<path style="fill:#4c83ac; stroke:none;" d="M14 45L15 46L14 45z"/>
<path style="fill:#759fbf; stroke:none;" d="M39 45L40 46L39 45z"/>
<path style="fill:#4c83ac; stroke:none;" d="M44 45L45 46L44 45z"/>
<path style="fill:#adc6d9; stroke:none;" d="M9 46L9 53L10 53L9 46z"/>
<path style="fill:#4c83ac; stroke:none;" d="M39 46L40 47L39 46z"/>
<path style="fill:#759fbf; stroke:none;" d="M44 46L45 47L44 46z"/>
<path style="fill:#adc6d9; stroke:none;" d="M61.3333 46.6667L61.6667 47.3333L61.3333 46.6667M13 47L13 52L14 52L13 47M44 47L44 52L45 52L44 47z"/>
<path style="fill:#759fbf; stroke:none;" d="M54 47L55 48L54 47z"/>
<path style="fill:#adc6d9; stroke:none;" d="M54.3333 48.6667L54.6667 49.3333L54.3333 48.6667z"/>
<path style="fill:#759fbf; stroke:none;" d="M61 48L62 49L61 48z"/>
<path style="fill:#4c83ac; stroke:none;" d="M61 49L62 50L61 49M39.3333 51.6667L39.6667 52.3333L39.3333 51.6667M53 51L54 52L53 51z"/>
<path style="fill:#adc6d9; stroke:none;" d="M60.3333 51.6667L60.6667 52.3333L60.3333 51.6667z"/>
<path style="fill:#759fbf; stroke:none;" d="M44 52L45 53L44 52M53 52L54 53L53 52M9 53L10 54L9 53z"/>
<path style="fill:#4c83ac; stroke:none;" d="M14 53L15 54L14 53z"/>
<path style="fill:#759fbf; stroke:none;" d="M39 53L40 54L39 53z"/>
<path style="fill:#4c83ac; stroke:none;" d="M44 53L45 54L44 53z"/>
<path style="fill:#adc6d9; stroke:none;" d="M53 53L54 54L53 53z"/>
<path style="fill:#4c83ac; stroke:none;" d="M60 53L61 54L60 53M9 54L10 55L9 54z"/>
<path style="fill:#adc6d9; stroke:none;" d="M14 54L15 55L14 54M39 54L40 55L39 54z"/>
<path style="fill:#4c83ac; stroke:none;" d="M15 55L16 56L15 55z"/>
<path style="fill:#759fbf; stroke:none;" d="M38 55L39 56L38 55z"/>
<path style="fill:#adc6d9; stroke:none;" d="M43 55L44 56L43 55M59.3333 55.6667L59.6667 56.3333L59.3333 55.6667z"/>
<path style="fill:#4c83ac; stroke:none;" d="M10 56L11 57L10 56z"/>
<path style="fill:#adc6d9; stroke:none;" d="M15 56L16 57L15 56z"/>
<path style="fill:#4c83ac; stroke:none;" d="M43 56L44 57L43 56z"/>
<path style="fill:#759fbf; stroke:none;" d="M52 56L53 57L52 56z"/>
<path style="fill:#adc6d9; stroke:none;" d="M11 57L12 58L11 57z"/>
<path style="fill:#759fbf; stroke:none;" d="M16 57L17 58L16 57z"/>
<path style="fill:#adc6d9; stroke:none;" d="M37 57L38 58L37 57M42 57L43 58L42 57M52.3333 57.6667L52.6667 58.3333L52.3333 57.6667z"/>
<path style="fill:#759fbf; stroke:none;" d="M59 57L60 58L59 57M11 58L12 59L11 58z"/>
<path style="fill:#4c83ac; stroke:none;" d="M17 58L18 59L17 58z"/>
<path style="fill:#759fbf; stroke:none;" d="M36 58L37 59L36 58z"/>
<path style="fill:#4c83ac; stroke:none;" d="M59 58L60 59L59 58z"/>
<path style="fill:#adc6d9; stroke:none;" d="M12 59L13 60L12 59z"/>
<path style="fill:#759fbf; stroke:none;" d="M18 59L19 60L18 59z"/>
<path style="fill:#adc6d9; stroke:none;" d="M35 59L36 60L35 59z"/>
<path style="fill:#759fbf; stroke:none;" d="M41 59L42 60L41 59M52 59L53 60L52 59z"/>
<path style="fill:#adc6d9; stroke:none;" d="M19 60L20 61L19 60z"/>
<path style="fill:#4c83ac; stroke:none;" d="M20 60L21 61L20 60M33 60L34 61L33 60z"/>
<path style="fill:#adc6d9; stroke:none;" d="M34 60L35 61L34 60M40 60L41 61L40 60M53 60L54 61L53 60z"/>
<path style="fill:#4c83ac; stroke:none;" d="M58 60L59 61L58 60M13 61L14 62L13 61z"/>
<path style="fill:#adc6d9; stroke:none;" d="M21 61L22 62L21 61z"/>
<path style="fill:#4c83ac; stroke:none;" d="M31 61L32 62L31 61z"/>
<path style="fill:#adc6d9; stroke:none;" d="M32 61L33 62L32 61M39 61L40 62L39 61z"/>
<path style="fill:#4c83ac; stroke:none;" d="M54 61L55 62L54 61z"/>
<path style="fill:#759fbf; stroke:none;" d="M55.6667 61.3333L56.3333 61.6667L55.6667 61.3333z"/>
<path style="fill:#4c83ac; stroke:none;" d="M57 61L58 62L57 61M14 62L15 63L14 62z"/>
<path style="fill:#adc6d9; stroke:none;" d="M23.6667 62.3333L24.3333 62.6667L23.6667 62.3333z"/>
<path style="fill:#759fbf; stroke:none;" d="M25 62L25 63L29 63L25 62z"/>
<path style="fill:#adc6d9; stroke:none;" d="M29.6667 62.3333L30.3333 62.6667L29.6667 62.3333M38 62L39 63L38 62M16 63L17 64L16 63M37 63L38 64L37 63z"/>
<path style="fill:#759fbf; stroke:none;" d="M17 64L18 65L17 64z"/>
<path style="fill:#adc6d9; stroke:none;" d="M35 64L36 65L35 64z"/>
<path style="fill:#759fbf; stroke:none;" d="M36 64L37 65L36 64z"/>
<path style="fill:#adc6d9; stroke:none;" d="M19 65L20 66L19 65z"/>
<path style="fill:#759fbf; stroke:none;" d="M34 65L35 66L34 65z"/>
<path style="fill:#4c83ac; stroke:none;" d="M21 66L22 67L21 66z"/>
<path style="fill:#759fbf; stroke:none;" d="M22 66L23 67L22 66z"/>
<path style="fill:#adc6d9; stroke:none;" d="M23 66L24 67L23 66M30 66L31 67L30 66z"/>
<path style="fill:#759fbf; stroke:none;" d="M31 66L32 67L31 66z"/>
<path style="fill:#4c83ac; stroke:none;" d="M32 66L33 67L32 66z"/>
<path style="fill:#adc6d9; stroke:none;" d="M0 73L1 74L0 73z"/>
</svg>
